PathFileType	4	(X/Y/Z)	 s02c0001.trc
DataRate	CameraRate	NumFrames	NumMarkers	Units	OrigDataRate	OrigDataStartFrame	OrigNumFrames
200	200	6	49	mm	200	1751	2000
Frame#	Time	racr			lacr			c7			jug			rlel			rdr			llel			ldr			s2			lic			ric			lasi			rasi			rpsi			lpsi			rgt			lgt			rth1			rth2			rth3			rth4			rlfc			rmfc			rsh1			rsh2			rsh3			rsh4			rlmal			rmmal			rcal			rtoe			rmt5			rmt1			lth1			lth2			lth4			lth3			llfc			lmfc			lsh1			lsh2			lsh3			lsh4			llmal			lmmal			lcal			ltoe			lmt1			lmt5			
		X1	Y1	Z1	X2	Y2	Z2	X3	Y3	Z3	X4	Y4	Z4	X5	Y5	Z5	X6	Y6	Z6	X7	Y7	Z7	X8	Y8	Z8	X9	Y9	Z9	X10	Y10	Z10	X11	Y11	Z11	X12	Y12	Z12	X13	Y13	Z13	X14	Y14	Z14	X15	Y15	Z15	X16	Y16	Z16	X17	Y17	Z17	X18	Y18	Z18	X19	Y19	Z19	X20	Y20	Z20	X21	Y21	Z21	X22	Y22	Z22	X23	Y23	Z23	X24	Y24	Z24	X25	Y25	Z25	X26	Y26	Z26	X27	Y27	Z27	X28	Y28	Z28	X29	Y29	Z29	X30	Y30	Z30	X31	Y31	Z31	X32	Y32	Z32	X33	Y33	Z33	X34	Y34	Z34	X35	Y35	Z35	X36	Y36	Z36	X37	Y37	Z37	X38	Y38	Z38	X39	Y39	Z39	X40	Y40	Z40	X41	Y41	Z41	X42	Y42	Z42	X43	Y43	Z43	X44	Y44	Z44	X45	Y45	Z45	X46	Y46	Z46	X47	Y47	Z47	X48	Y48	Z48	X49	Y49	Z49	
1751	8.7550	565.326428	1429.385682	565.022680	592.978599	1422.170544	161.733219	545.842466	1479.676634	357.633520	648.312638	1381.803685	365.731214	533.115082	1143.639946	634.131234	625.137555	1017.946483	778.812031	566.251237	1113.661635	128.615133	739.723614	1039.526187	21.889479	477.503071	973.861616	363.622567	635.137537	1017.891730	228.461538	602.146108	1020.531943	514.058748	681.952433	968.657076	260.576699	651.389687	971.829074	494.716744	487.075156	1000.102573	408.199586	498.962004	996.005516	323.874719	552.587044	886.487001	538.651160	568.956463	886.145531	205.060858	587.624774	802.089583	551.698336	605.671771	714.370186	548.874436	579.387300	633.080420	558.471337	638.872474	712.255071	530.849018	559.223993	499.233782	515.292454	562.719270	484.307099	411.139475	529.901212	397.940676	532.621759	543.990424	311.263073	517.380295	514.519927	230.050738	513.770993	564.367125	313.519590	483.680192	503.203266	101.226340	499.459843	515.081481	114.574132	421.588035	451.158382	53.645361	442.753488	726.942034	86.633398	498.845912	615.373318	48.351276	537.569113	657.238091	71.492734	436.109321	597.528026	759.799655	187.916018	607.380686	672.934045	194.414119	641.336689	670.192545	210.210604	570.590205	592.621356	203.357115	563.029009	494.995548	224.150012	559.386661	469.041039	322.139959	537.050557	399.333567	200.051014	555.246144	315.764801	215.278932	529.166757	228.833576	214.384000	574.803569	318.117257	250.452723	518.895927	114.156165	231.678973	541.690036	118.663371	309.800168	468.756290	58.329983	277.581104	751.424968	81.915274	249.417789	674.136689	70.413756	302.661371	646.788443	46.431787	196.293118	
1752	8.7600	565.369068	1429.382015	565.029453	593.001550	1422.158006	161.745671	545.877138	1479.668150	357.635283	648.358134	1381.810654	365.743010	533.115078	1143.639942	634.131219	625.160164	1017.959568	778.828301	566.283257	1113.650225	128.625278	739.733685	1039.493539	21.903604	477.528570	973.878393	363.634269	635.170956	1017.898786	228.473615	602.192135	1020.523015	514.057181	681.986144	968.641499	260.600554	651.414404	971.820388	494.702759	487.097938	1000.113702	408.220746	498.998160	995.991611	323.898270	552.601747	886.492373	538.667030	568.985573	886.149196	205.058015	587.661559	802.087353	551.699456	605.669404	714.357377	548.880192	579.387108	633.072277	558.481991	638.887263	712.257851	530.878505	559.248218	499.236194	515.287753	562.780931	484.332717	411.143184	529.899013	397.938381	532.631871	544.008406	311.268942	517.389064	514.504822	230.050029	513.781051	564.365464	313.520679	483.687389	503.179516	101.230142	499.456951	515.079613	114.580407	421.586702	451.182280	53.639968	442.764948	726.926823	86.629665	498.853072	615.349983	48.357621	537.574024	657.235154	71.474043	436.113015	597.554753	759.794995	187.930523	607.410247	672.909370	194.419429	641.354491	670.198286	210.234632	570.605074	592.615674	203.379000	563.035558	495.016208	224.148449	559.387669	469.047982	322.136895	537.055874	399.348506	200.066025	555.263500	315.771858	215.279868	529.206718	228.833446	214.379890	574.828130	318.118236	250.449972	518.875304	114.170043	231.676038	541.734180	118.654321	309.800017	468.748601	58.332637	277.579416	751.454897	81.898010	249.409854	674.132627	70.428635	302.664789	646.770499	46.415760	196.294247	
1753	8.7650	565.394312	1429.381696	565.029898	593.030016	1422.144196	161.745613	545.923454	1479.668051	357.629805	648.386243	1381.794123	365.746541	533.148856	1143.646592	634.137468	625.212927	1017.985778	778.855329	566.317115	1113.648053	128.643041	739.760827	1039.499491	21.917432	477.555704	973.877337	363.641770	635.190659	1017.910819	228.464555	602.223012	1020.511452	514.070457	682.013039	968.642090	260.597674	651.451527	971.809062	494.718232	487.162367	1000.092453	408.209276	499.101345	996.112307	323.867047	552.614649	886.522679	538.678440	568.998278	886.140471	205.055190	587.680480	802.081839	551.694687	605.689489	714.357526	548.872691	579.384878	633.072366	558.484708	638.905700	712.248936	530.877072	559.244963	499.238866	515.298639	562.779800	484.324169	411.141320	529.923686	397.925543	532.620663	544.015899	311.259098	517.396434	514.530175	230.038477	513.765739	564.398212	313.530723	483.692002	503.182161	101.243879	499.455805	516.169827	114.096942	421.394074	451.167099	53.631478	442.762257	726.942939	86.630779	498.845603	615.364628	48.281813	537.621119	657.238490	71.483808	436.104449	597.574170	759.790971	187.931515	607.413271	672.927781	194.427013	641.380125	670.188601	210.234557	570.620068	592.603545	203.376467	563.036275	494.994975	224.160461	559.387257	469.044106	322.141488	537.055047	399.340610	200.074146	555.269438	315.759821	215.293322	529.209714	228.837683	214.402538	574.834281	318.119646	250.455691	518.865668	114.153692	231.677127	541.723580	118.651944	309.788212	468.755914	58.338972	277.573992	751.453750	81.898075	249.410233	674.137763	70.415496	302.661095	646.762632	46.414047	196.276885	
1754	8.7700	565.426611	1429.406688	565.032257	593.065955	1422.142728	161.750389	545.966515	1479.670336	357.619276	648.402324	1381.793592	365.738907	533.212407	1143.636406	634.139203	625.245618	1017.984464	778.850366	566.349861	1113.645698	128.657092	739.784712	1039.490130	21.920001	477.617040	973.879986	363.630289	635.230027	1017.891435	228.472113	602.229514	1020.515499	514.089989	682.054576	968.645394	260.615099	651.468862	971.804139	494.730283	487.192406	1000.089135	408.204542	499.121578	996.108755	323.860181	552.640219	886.482088	538.672622	569.035870	886.141687	205.059702	587.692538	802.077790	551.702895	605.702295	714.369669	548.881319	579.401733	633.062821	558.489322	638.903370	712.239340	530.880290	559.234255	499.241856	515.306069	562.781491	484.329769	411.142997	529.916833	397.940642	532.620626	544.015389	311.259397	517.397271	514.531417	230.044203	513.769964	564.378085	313.517368	483.682519	503.178035	101.220412	499.459296	516.192682	114.108001	421.401613	451.172911	53.656713	442.771575	726.928446	86.619649	498.872750	615.373681	48.350261	537.570080	657.219868	71.465252	436.113525	597.603322	759.793574	187.933644	607.460218	672.914046	194.414897	641.400419	670.182708	210.245971	570.644844	592.612757	203.370545	563.061101	495.010605	224.158686	559.379227	469.058374	322.140611	537.076511	399.350661	200.076236	555.265223	315.772241	215.297326	529.170899	228.831365	214.376391	574.826032	318.115153	250.460548	518.892500	114.159117	231.677169	541.733571	118.656213	309.800912	468.754251	58.338216	277.586456	751.457364	81.909310	249.401441	674.133169	70.432403	302.662730	646.744855	46.426936	196.277074	
1755	8.7750	565.496050	1429.415882	565.044035	593.104485	1422.131433	161.749177	546.001617	1479.651974	357.633814	648.436135	1381.792607	365.745294	533.246154	1143.643031	634.145405	625.294313	1017.993132	778.888344	566.371003	1113.626881	128.662095	739.820183	1039.480900	21.917260	477.644582	973.877433	363.643143	635.276502	1017.885335	228.474543	602.275541	1020.506563	514.088426	682.091811	968.635279	260.610286	651.500606	971.796586	494.736103	487.199301	1000.115423	408.219467	499.150121	996.109784	323.872841	552.680577	886.484038	538.686904	569.073371	886.147064	205.073483	587.703563	802.080334	551.715821	605.708083	714.355649	548.876273	579.415323	633.064897	558.487757	638.934081	712.232367	530.884476	559.250691	499.232050	515.309241	562.785291	484.313718	411.142200	529.938788	397.916779	532.630918	544.009641	311.249343	517.379469	514.509936	230.039138	513.770169	564.386595	313.523058	483.693239	503.186682	101.226812	499.458845	515.109612	114.567955	421.598584	451.166046	53.635955	442.763739	726.943972	86.627608	498.843380	615.358513	48.333936	537.576053	657.231237	71.469202	436.114487	597.620782	759.792246	187.936422	607.460215	672.914055	194.414902	641.421862	670.202519	210.240154	570.673670	592.610821	203.384985	563.067458	495.005119	224.160354	559.400347	469.048597	322.155152	537.081863	399.354215	200.086521	555.263831	315.763688	215.285545	529.217324	228.852399	214.379818	574.834280	318.119197	250.479408	518.894285	114.157883	231.675317	541.729410	118.644161	309.803637	468.777975	58.328428	277.588554	751.475326	81.916913	249.419058	674.145973	70.415208	302.667800	646.765259	46.414900	196.280296	
1756	8.7800	565.494946	1429.410796	565.042804	593.135225	1422.133900	161.754559	546.026464	1479.663032	357.630715	648.477472	1381.789036	365.776865	533.293094	1143.648574	634.166287	625.324534	1017.993330	778.873883	566.403166	1113.619401	128.683806	739.846739	1039.477391	21.927800	477.681891	973.874797	363.648217	635.317257	1017.877454	228.496400	602.275508	1020.506572	514.088445	682.114292	968.615083	260.619761	651.531868	971.796358	494.743320	487.252782	1000.088202	408.194308	499.200542	996.111073	323.865929	552.671378	886.503182	538.697481	569.099782	886.155492	205.077133	587.729036	802.056136	551.715233	605.721053	714.351141	548.896411	579.421762	633.051679	558.486578	638.935596	712.232455	530.890330	559.257510	499.244002	515.311577	562.806550	484.320890	411.152529	529.929440	397.936300	532.634164	544.007070	311.251676	517.396955	514.514350	230.043804	513.776161	564.399541	313.525197	483.683875	503.183795	101.230161	499.456835	516.185835	114.100997	421.403447	451.178973	53.628425	442.773077	726.930040	86.621589	498.847449	615.359216	48.337816	537.571320	657.227903	71.479080	436.102147	597.659047	759.784349	187.943954	607.498384	672.929983	194.443235	641.429313	670.178797	210.240542	570.674653	592.609629	203.387497	563.084982	495.008839	224.159561	559.410401	469.059812	322.146997	537.085143	399.388368	200.093917	555.268521	315.774003	215.273336	529.229607	228.858680	214.388958	574.821406	318.120286	250.456644	518.896300	114.154153	231.676836	541.723576	118.651231	309.788922	468.763700	58.326717	277.566498	751.442967	81.887352	249.413797	674.136103	70.423099	302.680336	646.758101	46.414330	196.274189	
